# xmcd CD database file
#
# Track frame offsets:
#	150
#	9493
#	20367
#	31055
#	41383
#	53024
#	66450
#	77058
#	89294
#	101129
#	111797
#	125404
#	136817
#	147912
#	161416
#
# Disc length: 2313 seconds
#
# Revision: 0
# Processed by: cddbd v1.5.2PL0 Copyright (c) Steve Scherf et al.
# Submitted via: CDex 1.50
#
DISCID=bb09070f
DTITLE=Various Artist - The Sun Records Collection Vol. 2  CD1 (Country Sun)
DYEAR=1900
DGENRE=Country
TTITLE0=Johnny Cash - New Mexico
TTITLE1=Malcolm Yelvington - It's my baby
TTITLE2=Charlie Rich - Who will the next fool be
TTITLE3=Slim Rhodes - Don't believe
TTITLE4=Mack Vickery - Fool proof
TTITLE5=Carl Perkins - Turn around
TTITLE6=Onie Wheeler - Jump right out of this jukebox
TTITLE7=Mack Self - Easy to love
TTITLE8=Jerry Lee Lewis - Crazy arms
TTITLE9=Hardock Gunther - Gonna dance all night
TTITLE10=Howard Seratt - Troublesome waters
TTITLE11=Charlie Feathers - Defrost your heart
TTITLE12=Johnny Cash - Don't make me go
TTITLE13=Doug Pointdexter - Now she cares no more for me
TTITLE14=Warren Smith - I fell in love
EXTD=
EXTT0=
EXTT1=
EXTT2=
EXTT3=
EXTT4=
EXTT5=
EXTT6=
EXTT7=
EXTT8=
EXTT9=
EXTT10=
EXTT11=
EXTT12=
EXTT13=
EXTT14=
PLAYORDER=
